<?xml version="1.0" standalone="no"?>
<!DOCTYPE svg PUBLIC "-//W3C//DTD SVG 20010904//EN"
 "http://www.w3.org/TR/2001/REC-SVG-20010904/DTD/svg10.dtd">
<svg version="1.0" xmlns="http://www.w3.org/2000/svg"
 width="1024.000000pt" height="1024.000000pt" viewBox="0 0 1024.000000 1024.000000"
 preserveAspectRatio="xMidYMid meet">

<g transform="translate(0.000000,1024.000000) scale(0.100000,-0.100000)"
fill="#000000" stroke="none">
<path d="M4820 9704 c-14 -21 -40 -48 -58 -61 l-33 -22 30 -15 c16 -9 42 -31
56 -50 l26 -35 42 43 c23 24 49 45 57 48 10 3 1 17 -30 49 -25 24 -50 52 -55
63 -9 16 -13 14 -35 -20z"/>
<path d="M5549 9660 c-25 -13 -45 -35 -60 -67 -22 -44 -24 -59 -21 -170 2
-117 1 -122 -23 -151 -14 -17 -48 -46 -74 -66 -41 -29 -51 -33 -61 -21 -6 8
-35 25 -63 40 -56 28 -148 34 -205 14 -27 -9 -39 -7 -79 12 -37 18 -65 23
-123 23 -67 0 -86 -5 -183 -47 -59 -25 -123 -49 -142 -53 -19 -3 -35 -9 -35
-13 0 -4 -31 -44 -69 -89 -38 -45 -91 -112 -118 -149 -86 -119 -203 -283 -212
-301 -23 -42 -61 -167 -56 -183 4 -12 27 -22 75 -33 103 -24 114 -22 150 24
l32 41 -26 61 -27 61 33 34 c39 41 131 107 209 151 62 35 132 100 155 143 l14
28 52 -23 c69 -31 144 -46 222 -46 l64 0 -45 -142 c-93 -294 -122 -347 -272
-496 -129 -127 -146 -160 -146 -277 0 -98 9 -129 62 -213 41 -65 16 -57 -45
15 l-40 46 -42 -82 -41 -83 2 -291 c2 -356 2 -377 10 -377 15 0 319 383 399
502 36 54 67 98 70 98 3 0 43 -22 90 -49 l85 -49 21 26 c64 80 45 73 179 60
66 -6 121 -13 123 -14 2 -1 -22 -25 -52 -54 -41 -39 -70 -80 -115 -168 -64
-124 -159 -258 -234 -331 l-45 -43 -48 16 c-65 22 -130 21 -143 -2 -9 -17 9
-343 24 -447 13 -87 35 -146 53 -143 17 3 21 10 76 130 41 90 120 217 148 237
16 10 18 20 13 51 -6 36 -5 38 77 112 46 41 142 121 213 178 228 180 475 449
475 517 0 15 -298 253 -333 266 -7 2 -9 8 -5 12 12 12 107 -40 176 -96 35 -28
65 -49 68 -46 3 2 -28 35 -68 71 -75 70 -168 122 -304 171 -46 17 -57 23 -34
20 27 -4 15 5 -55 40 -49 24 -96 45 -102 45 -25 0 -12 19 59 87 40 37 112 106
160 152 l87 84 58 -50 c119 -101 261 -193 298 -193 10 0 64 30 119 66 74 49
138 104 236 203 74 75 155 151 180 168 25 17 54 47 65 66 16 31 17 40 6 76
-25 85 -91 119 -175 91 -53 -17 -71 -57 -55 -120 l12 -48 -33 -29 c-52 -45
-99 -71 -187 -104 -46 -18 -93 -41 -106 -53 l-23 -22 -12 50 c-18 75 -58 134
-113 169 -42 26 -49 34 -49 62 0 61 -13 95 -52 140 -22 25 -43 43 -46 40 -3
-2 2 -13 10 -22 46 -52 64 -140 43 -208 -8 -27 -9 -23 -15 37 -5 46 -14 77
-31 102 l-24 35 -12 -59 c-13 -67 -39 -120 -29 -61 8 47 -7 96 -55 175 -41 68
-47 98 -11 54 11 -12 32 -36 46 -53 l25 -30 1 28 c0 20 19 51 68 107 37 43 74
81 82 84 8 3 40 2 71 -2 64 -9 79 -6 79 15 0 8 8 37 17 64 13 35 24 50 41 54
19 5 23 10 17 28 -3 12 -10 58 -15 102 -5 44 -12 91 -14 106 -4 20 1 27 24 36
22 8 30 19 36 48 8 43 -3 55 -51 55 -17 0 -77 14 -135 30 -121 35 -170 37
-221 10z m-609 -426 c60 -24 37 -37 -42 -24 -67 12 -168 1 -213 -22 -18 -10
-19 -10 -5 7 43 52 178 72 260 39z m280 -29 c32 -16 84 -64 77 -71 -3 -3 -25
5 -49 17 -61 33 -175 33 -236 2 -53 -29 -56 -29 -37 1 44 67 164 92 245 51z
m545 -578 c56 -55 96 -183 65 -202 -5 -3 -10 2 -10 12 0 35 -48 119 -94 163
-25 24 -46 50 -46 57 0 27 44 11 85 -30z m-1035 -405 c-74 -52 -105 -94 -137
-187 l-13 -40 4 57 c5 68 49 156 86 175 14 7 39 13 55 12 l30 0 -25 -17z"/>
<path d="M6695 9571 c-23 -10 -52 -32 -66 -48 -23 -28 -26 -29 -48 -15 -17 12
-31 13 -59 6 -56 -14 -78 -55 -87 -161 -8 -101 -29 -158 -75 -201 -35 -34 -92
-57 -117 -48 -11 5 -14 2 -9 -10 3 -8 6 -17 6 -20 0 -12 65 -34 100 -34 79 0
170 72 212 167 17 40 19 58 13 143 -7 93 -6 99 14 109 20 11 21 9 21 -31 0
-24 8 -59 18 -78 23 -46 90 -96 141 -104 32 -5 44 -12 51 -32 14 -37 12 -65
-7 -86 -21 -24 -6 -23 32 2 44 29 105 27 135 -5 13 -14 18 -25 12 -25 -6 0
-14 5 -17 10 -11 17 -101 11 -150 -10 -26 -11 -50 -18 -54 -15 -13 8 -176 -91
-179 -109 -6 -28 60 -156 125 -243 57 -77 60 -84 56 -126 -5 -39 -2 -46 22
-65 15 -12 33 -22 39 -22 17 0 76 59 76 75 0 8 -22 39 -48 68 -34 37 -60 81
-90 155 -24 56 -40 106 -38 111 3 5 19 11 36 13 26 4 41 -7 132 -94 120 -116
138 -140 138 -191 0 -46 -11 -68 -61 -126 -41 -46 -62 -99 -54 -138 3 -13 7
-34 10 -48 7 -32 65 -96 119 -133 72 -49 315 -253 334 -280 10 -15 32 -56 49
-92 40 -88 77 -128 197 -213 138 -97 186 -143 186 -176 0 -31 41 -96 71 -111
17 -10 31 -2 99 55 104 87 172 163 168 188 -6 37 -31 42 -89 17 -30 -12 -81
-25 -114 -28 -55 -4 -64 -2 -93 23 -18 15 -72 75 -120 134 -47 58 -104 126
-125 151 -22 25 -55 77 -74 115 -58 114 -170 300 -225 372 l-52 68 -1 150 c0
126 -4 164 -24 241 l-25 90 40 56 c100 143 186 248 204 248 25 0 60 46 60 80
0 34 -32 63 -70 63 -40 0 -70 -29 -70 -68 0 -28 -13 -45 -97 -124 -54 -50
-102 -91 -108 -91 -5 0 -37 9 -70 19 -47 15 -69 29 -101 66 -23 26 -50 65 -60
87 -18 40 -18 41 4 58 12 10 28 20 35 23 9 3 9 13 0 49 -7 24 -9 54 -6 66 3
13 1 22 -6 22 -6 0 -27 22 -46 48 -19 27 -46 54 -60 60 -38 18 -114 14 -160
-7z"/>
<path d="M2953 9572 c-17 -11 -25 -50 -15 -69 11 -20 -10 -117 -30 -140 -8
-10 -8 -17 0 -25 7 -7 12 -38 12 -70 l0 -58 47 3 c45 2 46 1 56 -33 9 -35 5
-87 -12 -170 -9 -42 -10 -40 -7 28 2 39 2 72 0 72 -2 0 -28 -33 -58 -72 -29
-40 -67 -86 -84 -101 l-30 -28 -26 52 c-30 62 -32 87 -9 127 15 26 15 32 1 68
-19 48 -49 55 -102 24 -32 -19 -36 -27 -36 -61 0 -22 6 -55 14 -73 8 -19 17
-65 21 -103 7 -73 29 -168 47 -208 21 -47 100 -26 195 51 l41 34 16 -47 c24
-74 86 -330 85 -350 0 -10 -36 -49 -80 -86 -47 -40 -79 -76 -79 -87 0 -10 -5
-22 -10 -25 -6 -4 -40 -41 -75 -82 -47 -54 -65 -84 -65 -104 0 -16 46 -119
106 -238 79 -154 107 -219 107 -248 1 -41 -49 -135 -105 -198 -80 -92 70 -62
229 46 64 43 93 70 93 86 0 7 -18 24 -41 39 -50 31 -75 84 -96 198 -29 166
-35 185 -64 225 -16 23 -29 44 -29 49 0 4 34 27 75 51 77 44 89 44 117 7 3 -5
14 -2 23 8 9 9 74 54 143 99 138 90 188 138 197 189 7 38 -16 112 -45 143 -15
16 -26 65 -50 224 -16 112 -30 214 -30 227 0 20 6 24 48 30 26 3 59 13 73 20
l27 13 66 -111 c36 -62 66 -122 66 -134 0 -12 -7 -35 -15 -50 -23 -44 -18 -76
16 -103 38 -30 84 -23 123 18 l28 29 -26 58 c-15 31 -36 94 -47 138 -19 75
-85 276 -91 280 -27 16 -72 27 -122 31 l-61 5 73 -19 c40 -10 79 -24 85 -31
10 -10 8 -11 -8 -6 -11 4 -60 16 -110 25 -49 10 -110 28 -135 41 -27 14 -70
25 -110 28 -103 7 -119 36 -80 140 40 105 16 170 -71 196 -29 9 -70 16 -91 16
-22 0 -47 4 -57 9 -9 5 -22 7 -28 3z m391 -388 c35 -13 12 -21 -64 -21 -48 0
-86 -6 -95 -13 -10 -8 -15 -9 -15 -2 0 33 119 57 174 36z"/>
<path d="M4182 9535 c-12 -20 -36 -44 -53 -54 l-31 -19 23 -13 c13 -6 26 -15
29 -19 3 -4 18 -22 33 -40 l28 -33 35 41 c19 23 43 44 54 47 26 8 25 19 -2 34
-13 7 -36 30 -52 52 -17 21 -32 39 -35 39 -3 0 -16 -16 -29 -35z"/>
<path d="M2344 9250 c-46 -18 -29 -100 21 -100 52 0 74 65 33 94 -25 18 -25
18 -54 6z"/>
<path d="M7940 9200 c-11 -11 -20 -27 -20 -35 0 -18 35 -55 53 -55 27 0 57 31
57 60 0 48 -54 66 -90 30z"/>
<path d="M8415 8907 c-61 -18 -147 -70 -185 -113 -74 -84 -110 -229 -80 -319
14 -43 71 -110 111 -131 56 -29 161 -16 238 30 l34 20 -70 65 c-39 36 -74 74
-77 84 -14 42 50 127 96 127 23 0 80 -41 157 -114 29 -28 48 -41 41 -30 -11
18 -10 28 11 70 32 66 34 169 3 211 -71 95 -187 99 -337 11 l-48 -28 25 33
c13 17 50 45 80 60 76 39 76 45 1 24z"/>
<path d="M2072 8893 c20 -10 56 -36 80 -59 67 -63 78 -81 24 -40 -89 68 -122
80 -212 81 -73 0 -84 -3 -116 -27 -48 -36 -73 -101 -65 -167 6 -51 41 -131 57
-131 5 0 37 23 72 51 84 68 102 76 133 59 34 -18 65 -70 65 -109 0 -24 -11
-42 -47 -77 -27 -26 -58 -53 -70 -61 -13 -9 -23 -18 -23 -22 0 -4 26 -20 59
-35 116 -56 242 -21 301 84 21 38 25 58 25 125 0 71 -4 89 -33 148 -35 70
-116 152 -162 164 -14 3 -28 10 -31 15 -3 5 -26 12 -50 14 l-44 5 37 -18z"/>
<path d="M1127 8589 c-47 -11 -89 -32 -107 -54 -13 -15 -10 -16 31 -10 84 13
215 -25 336 -96 72 -43 287 -254 341 -335 92 -138 151 -289 152 -386 0 -45 15
-49 54 -13 101 93 64 296 -93 510 l-52 70 33 29 c18 15 86 71 151 123 71 58
120 105 123 119 11 45 -18 76 -31 34 -7 -21 -25 -28 -25 -10 0 25 -40 3 -174
-95 -79 -58 -147 -105 -151 -105 -5 0 -42 26 -84 57 -46 36 -82 57 -95 55 -16
-2 -18 -1 -7 6 17 12 -90 73 -168 96 -59 17 -172 20 -234 5z m223 -19 c13 -9
13 -10 0 -10 -8 0 -22 5 -30 10 -13 9 -13 10 0 10 8 0 22 -5 30 -10z m235
-150 c10 -11 16 -20 13 -20 -3 0 -13 9 -23 20 -10 11 -16 20 -13 20 3 0 13 -9
23 -20z m89 -73 c-10 -6 -20 -5 -27 2 -8 8 -8 11 1 11 10 0 10 5 1 23 -11 21
-11 21 15 -2 23 -22 24 -26 10 -34z"/>
<path d="M8405 8580 c-10 -31 9 -53 117 -141 115 -91 178 -149 178 -161 0 -5
-24 -40 -54 -79 -91 -120 -146 -248 -148 -344 -1 -78 16 -128 53 -160 44 -36
59 -33 59 13 0 136 135 395 293 561 69 72 182 158 259 196 87 42 202 68 267
60 l46 -6 -28 25 c-64 58 -211 71 -335 29 -76 -25 -104 -41 -205 -115 -97 -71
-94 -68 -78 -77 8 -6 9 -11 3 -15 -11 -6 -121 64 -247 159 -82 62 -104 69
-120 38 -14 -26 -25 -20 -25 14 0 28 -26 31 -35 3z"/>
<path d="M1772 8475 c-34 -25 -62 -48 -62 -51 0 -5 65 40 110 75 46 38 15 21
-48 -24z"/>
<path d="M8715 8490 c10 -11 20 -20 23 -20 3 0 -3 9 -13 20 -10 11 -20 20 -23
20 -3 0 3 -9 13 -20z"/>
<path d="M991 8469 c-50 -15 -108 -58 -132 -96 -12 -19 -19 -36 -17 -38 2 -3
20 0 39 5 53 15 91 12 176 -15 217 -68 471 -322 584 -585 32 -74 43 -113 65
-227 6 -30 13 -29 62 7 111 80 111 244 -1 431 -127 214 -384 444 -562 504 -62
21 -169 28 -214 14z"/>
<path d="M9300 8461 c-245 -78 -567 -407 -643 -656 -34 -112 -30 -174 15 -242
24 -36 92 -78 108 -68 6 3 10 24 10 46 0 126 144 390 302 555 173 180 374 276
515 246 26 -6 49 -9 52 -7 12 12 -68 88 -121 114 -73 37 -150 41 -238 12z"/>
<path d="M8765 8450 c10 -11 20 -20 23 -20 3 0 -3 9 -13 20 -10 11 -20 20 -23
20 -3 0 3 -9 13 -20z"/>
<path d="M7880 8339 c0 -18 -59 -87 -80 -94 -17 -5 -12 -13 36 -61 l56 -55 35
40 c18 22 42 43 53 46 27 9 25 17 -9 40 -16 10 -40 36 -53 57 -23 37 -38 48
-38 27z"/>
<path d="M849 8291 c-42 -14 -80 -43 -110 -85 -16 -21 -29 -42 -29 -46 0 -4
30 -5 68 -3 171 12 367 -116 555 -366 100 -132 176 -316 177 -423 0 -31 4 -38
20 -38 73 0 137 71 147 161 22 219 -326 662 -611 777 -65 26 -172 38 -217 23z"/>
<path d="M9473 8285 c-258 -85 -578 -430 -648 -700 -8 -32 -15 -70 -15 -83 0
-83 69 -172 134 -172 34 0 34 0 41 58 32 268 285 608 542 730 71 33 86 37 165
37 49 0 88 3 88 6 0 17 -50 77 -87 102 -34 24 -53 30 -110 33 -40 2 -85 -2
-110 -11z"/>
<path d="M2520 8250 c-11 -11 -20 -24 -20 -29 0 -23 15 -43 38 -52 54 -21 96
46 54 84 -25 22 -48 21 -72 -3z"/>
<path d="M3465 8234 c-22 -20 -78 -61 -125 -92 -47 -30 -89 -59 -93 -62 -10
-9 64 -160 78 -160 6 0 21 7 33 16 22 15 25 15 49 -7 13 -13 49 -57 80 -97 35
-46 69 -80 95 -93 43 -22 296 -247 339 -301 40 -51 56 -87 78 -179 22 -88 43
-118 68 -97 37 31 63 97 79 202 17 118 15 125 -36 126 -77 1 -100 12 -145 70
-24 31 -60 88 -81 126 -48 89 -97 141 -160 169 -53 24 -57 29 -104 140 -20 47
-20 50 -4 62 10 7 22 13 26 13 5 0 -22 45 -59 100 -38 54 -70 99 -73 99 -3 0
-23 -16 -45 -35z"/>
<path d="M6864 8204 c-26 -37 -68 -105 -93 -152 -25 -47 -53 -89 -61 -93 -8
-4 -49 -24 -91 -43 -63 -30 -92 -52 -170 -132 -98 -100 -168 -155 -197 -156
-9 0 -41 3 -69 7 -51 8 -53 7 -64 -21 -17 -45 -17 -327 0 -347 18 -22 40 -22
47 1 25 77 70 146 115 179 27 19 49 40 50 46 3 56 8 60 229 186 227 130 289
171 400 267 74 64 160 159 160 178 0 2 -28 20 -62 41 -35 21 -82 53 -105 72
l-42 33 -47 -66z"/>
<path d="M4031 8154 c-13 -19 -37 -44 -52 -55 l-28 -19 52 -53 52 -53 28 33
c16 19 42 40 59 49 l29 15 -45 40 c-25 22 -48 49 -51 59 -9 28 -16 25 -44 -16z"/>
<path d="M735 8113 c-80 -19 -124 -76 -132 -171 -7 -72 15 -158 65 -264 30
-65 42 -80 64 -85 15 -3 25 -9 23 -14 -3 -4 3 -12 12 -18 11 -7 13 -11 5 -11
-10 0 -8 -9 7 -34 27 -44 26 -58 -2 -25 -26 30 -80 69 -96 69 -19 0 -12 -16
13 -29 25 -14 72 -88 62 -98 -3 -3 -15 6 -27 21 -25 32 -69 56 -101 56 -19 -1
-17 -4 14 -20 27 -15 40 -30 47 -57 12 -43 6 -58 -8 -20 -13 34 -49 57 -86 56
l-30 -1 36 -15 c20 -8 42 -26 48 -39 20 -45 11 -52 -23 -18 -36 36 -61 42 -91
20 -29 -21 -22 -73 16 -112 37 -39 86 -52 120 -33 27 14 168 115 212 151 37
30 55 29 80 -4 26 -35 18 -44 -21 -24 -57 29 -89 -7 -44 -49 45 -43 169 -116
240 -143 97 -35 193 -35 256 2 69 40 89 87 84 192 -4 70 -10 93 -46 168 -58
121 -133 227 -229 322 -166 165 -351 255 -468 227z m148 -247 c23 -14 67 -34
98 -46 49 -18 57 -25 63 -52 3 -17 25 -55 47 -85 40 -51 41 -54 24 -73 -16
-18 -16 -20 1 -49 9 -16 26 -33 36 -38 18 -8 17 -10 -11 -37 -27 -26 -31 -27
-31 -10 0 39 -49 121 -106 179 -42 42 -87 75 -151 108 l-90 47 35 40 c20 22
38 40 40 40 2 0 22 -11 45 -24z m12 -186 c33 -21 85 -87 85 -108 0 -7 -14 3
-31 23 -41 46 -78 65 -126 64 l-38 -1 34 -8 c34 -8 80 -45 69 -55 -3 -4 -20 1
-38 10 -17 9 -43 15 -58 13 l-27 -4 26 -11 c28 -12 83 -72 74 -81 -3 -3 -11 0
-17 6 -17 17 -28 15 -21 -5 4 -11 3 -14 -6 -9 -7 5 -10 14 -7 22 6 16 -64 74
-90 74 -16 0 -17 2 -4 15 28 27 105 73 124 74 10 1 33 -8 51 -19z"/>
<path d="M850 7832 c0 -12 19 -26 26 -19 2 2 -2 10 -11 17 -9 8 -15 8 -15 2z"/>
<path d="M9633 8105 c-123 -34 -245 -116 -369 -248 -244 -258 -324 -545 -183
-649 68 -51 197 -42 325 23 156 78 260 179 172 167 -18 -3 -41 -8 -50 -13 -30
-12 -24 43 5 56 26 12 45 1 190 -111 43 -33 90 -63 103 -66 75 -19 181 105
132 154 -22 22 -65 13 -102 -22 -35 -33 -36 -33 -36 -10 0 26 49 64 83 64 9 0
17 5 17 10 0 27 -125 -16 -137 -46 -10 -27 -22 -13 -12 14 6 18 25 36 52 50
37 18 39 21 16 21 -14 1 -46 -12 -72 -29 -33 -21 -47 -25 -47 -15 0 15 42 48
86 67 l29 12 -28 4 c-19 2 -39 -5 -60 -20 -52 -39 -61 -44 -54 -25 3 10 2 17
-3 17 -18 0 -10 22 10 27 11 3 20 12 20 19 0 10 13 14 41 14 24 0 38 4 34 10
-15 24 -85 2 -144 -47 l-34 -28 16 30 c24 45 84 88 125 89 33 1 37 5 68 66 47
93 68 166 68 236 0 143 -113 221 -261 179z m66 -256 c18 -22 31 -42 30 -43 -2
-2 -44 -25 -93 -52 -48 -27 -105 -64 -126 -82 -48 -40 -120 -149 -120 -179 0
-28 -8 -29 -36 -2 l-23 21 35 36 c39 40 42 55 14 68 -18 8 -16 13 25 69 25 33
48 65 53 70 4 6 6 17 4 27 -2 12 17 24 80 48 46 17 90 38 98 46 20 20 23 19
59 -27z m7 -180 c44 -27 43 -38 -3 -32 -26 3 -44 -1 -58 -12 l-20 -17 20 7
c51 18 56 15 15 -11 -25 -15 -53 -34 -62 -42 -16 -14 -18 -13 -18 3 0 10 19
36 42 58 34 32 37 38 17 32 -32 -10 -74 -40 -99 -72 -14 -18 -20 -21 -20 -10
0 36 92 117 134 117 10 0 34 -9 52 -21z"/>
<path d="M9620 7825 c-10 -12 -10 -15 3 -15 19 0 31 16 18 24 -5 3 -14 -1 -21
-9z"/>
<path d="M6158 8037 c-37 -28 -66 -52 -65 -53 1 -1 36 -4 77 -8 l75 -6 72 54
71 54 -36 6 c-93 15 -123 8 -194 -47z"/>
<path d="M2315 8000 c-3 -10 -26 -37 -51 -59 -41 -36 -43 -40 -24 -46 11 -3
37 -26 57 -51 l37 -44 30 36 c16 20 43 44 59 54 l29 18 -29 15 c-16 9 -42 34
-58 56 -31 46 -41 50 -50 21z"/>
<path d="M8081 7971 c-25 -25 -26 -39 -5 -69 29 -41 94 -19 94 32 0 45 -58 68
-89 37z"/>
<path d="M2521 7656 c-13 -20 -39 -48 -60 -62 -33 -22 -34 -25 -15 -30 11 -3
38 -27 58 -53 l38 -48 53 54 52 54 -41 42 c-23 23 -46 51 -52 61 -9 18 -12 17
-33 -18z"/>
<path d="M6875 7658 c-28 -16 -35 -28 -35 -65 0 -22 6 -36 20 -43 18 -9 20
-21 20 -100 0 -108 4 -120 41 -120 22 0 29 5 29 20 0 19 7 20 126 20 117 0
126 -1 131 -20 4 -14 14 -20 34 -20 l29 0 0 108 c0 96 2 108 20 120 30 18 26
66 -6 91 -36 28 -79 27 -109 -4 -32 -31 -32 -60 0 -89 21 -19 25 -32 25 -79 0
-41 -4 -56 -16 -61 -21 -8 -129 -8 -188 0 l-46 7 0 63 c0 50 3 64 15 64 16 0
35 30 35 55 0 9 -11 27 -25 40 -26 27 -67 32 -100 13z"/>
<path d="M3424 7545 c-21 -33 -6 -72 31 -81 52 -13 86 53 47 89 -27 24 -59 21
-78 -8z"/>
<path d="M1999 7353 c-13 -21 -39 -47 -57 -59 l-32 -22 35 -22 c19 -12 35 -25
35 -28 1 -4 10 -18 21 -31 l20 -24 30 37 c17 20 44 43 61 52 l30 16 -30 18
c-17 11 -43 37 -58 60 -15 22 -28 40 -29 40 -1 0 -13 -17 -26 -37z"/>
<path d="M8420 7380 c0 -6 -23 -34 -51 -62 -46 -46 -49 -52 -33 -61 11 -6 36
-28 57 -50 38 -39 39 -39 53 -19 20 28 42 50 70 69 l24 15 -44 40 c-25 21 -48
48 -51 58 -7 21 -25 28 -25 10z"/>
<path d="M1505 5288 c2 -931 4 -1720 4 -1753 l1 -60 43 1 c23 0 232 1 465 2
l422 2 0 635 0 635 368 0 369 0 184 -317 c101 -174 268 -461 370 -637 l186
-319 512 -1 c410 -1 510 2 506 12 -2 7 -64 115 -136 240 -72 125 -226 391
-341 592 -116 201 -232 402 -259 448 -27 45 -49 84 -49 86 0 1 41 27 91 56
159 95 308 264 389 442 139 310 133 712 -17 1013 -170 340 -455 539 -862 600
-79 12 -285 15 -1173 15 l-1077 0 4 -1692z m2096 831 c109 -51 174 -154 173
-274 -1 -147 -92 -256 -243 -291 -43 -11 -178 -14 -573 -14 l-518 0 0 305 0
305 553 -2 552 -3 56 -26z"/>
<path d="M5910 5256 c0 -948 3 -1736 6 -1752 l5 -29 1002 3 c815 2 1018 5
1087 17 249 42 478 147 629 289 130 123 246 323 292 501 20 76 24 115 24 250
0 137 -4 172 -23 240 -63 219 -189 382 -364 472 l-57 29 80 58 c101 73 178
166 234 281 69 141 80 194 79 380 -1 132 -5 174 -22 239 -115 418 -431 679
-892 736 -53 6 -453 10 -1082 10 l-998 0 0 -1724z m1869 878 c108 -32 185
-140 184 -259 -1 -80 -26 -137 -81 -185 -77 -69 -89 -70 -584 -70 l-438 0 0
265 0 265 433 0 c364 0 442 -2 486 -16z m-5 -1279 c76 -20 133 -59 173 -118
110 -164 42 -359 -145 -417 -60 -19 -94 -20 -503 -20 l-439 0 0 285 0 285 428
0 c351 0 438 -3 486 -15z"/>
<path d="M592 6868 c-8 -8 -12 -60 -12 -178 0 -201 -1 -200 107 -200 79 0 91
7 100 64 l6 36 68 0 68 0 7 -37 c10 -58 18 -63 104 -63 111 0 110 -2 110 197
0 195 1 193 -111 193 -45 0 -80 -5 -87 -12 -7 -7 -12 -31 -12 -55 l0 -43 -73
0 -73 0 -10 53 -9 52 -85 3 c-58 2 -89 -1 -98 -10z m304 -118 c37 0 44 -3 44
-20 0 -18 -7 -20 -79 -20 l-78 0 5 26 c4 23 8 25 35 20 16 -3 49 -6 73 -6z"/>
<path d="M9296 6858 c-13 -18 -16 -52 -16 -179 0 -190 -1 -189 112 -189 84 0
92 5 103 63 l7 37 69 0 c66 0 69 -1 69 -24 0 -14 4 -36 10 -50 9 -25 12 -26
94 -26 117 0 116 -1 116 200 -1 113 -4 160 -14 173 -11 14 -29 17 -100 17 -84
0 -87 -1 -96 -26 -6 -14 -10 -41 -10 -61 l0 -36 -46 7 c-26 3 -57 6 -69 6 -18
0 -23 8 -31 53 l-9 52 -87 3 c-80 3 -87 1 -102 -20z m381 -90 c-3 -7 -5 -2 -5
12 0 14 2 19 5 13 2 -7 2 -19 0 -25z m-37 -38 c0 -18 -7 -20 -75 -20 -41 0
-75 2 -75 4 0 29 16 36 81 36 62 0 69 -2 69 -20z"/>
<path d="M5365 6537 c-132 -56 -264 -112 -292 -125 l-53 -23 0 -224 c0 -174 3
-225 13 -224 6 0 140 55 297 123 l285 122 3 227 c1 125 -1 227 -5 226 -5 0
-116 -47 -248 -102z"/>
<path d="M596 6124 c-12 -12 -16 -41 -18 -127 -5 -246 0 -257 104 -257 77 0
96 11 104 60 l7 40 67 0 c72 0 80 -5 80 -55 0 -33 27 -45 104 -45 58 0 67 3
85 26 19 24 21 40 21 180 0 189 -3 194 -106 194 -91 0 -104 -9 -104 -70 l0
-50 -75 0 c-71 0 -75 1 -76 23 -1 38 -9 70 -20 84 -17 20 -153 18 -173 -3z
m300 -124 c38 0 44 -3 44 -21 0 -19 -5 -20 -75 -18 -72 3 -75 4 -75 27 0 22 3
24 31 18 17 -3 51 -6 75 -6z"/>
<path d="M9314 6132 c-27 -18 -34 -56 -34 -197 0 -142 1 -147 25 -170 21 -22
33 -25 90 -25 75 0 105 20 105 70 l0 30 69 0 69 0 7 -40 c9 -50 26 -60 109
-60 104 0 106 4 106 204 0 195 -1 196 -108 196 -82 0 -102 -11 -102 -55 0 -61
-5 -65 -80 -65 l-67 0 -6 52 c-4 28 -12 55 -19 60 -16 10 -149 10 -164 0z
m331 -152 c0 -12 -15 -15 -75 -15 -64 0 -75 3 -78 18 -3 16 4 18 75 15 61 -2
78 -6 78 -18z"/>
<path d="M5485 5686 c-66 -29 -198 -85 -292 -125 l-173 -73 0 -214 c0 -201 1
-214 18 -204 9 5 128 57 263 114 135 58 262 113 282 122 l37 18 0 208 c0 114
-3 207 -7 207 -5 -1 -62 -25 -128 -53z"/>
<path d="M600 5461 c-14 -28 -13 -136 3 -149 17 -15 79 -21 100 -10 9 5 17 18
17 28 0 19 8 20 254 20 273 0 281 2 274 52 l-3 23 -261 3 -262 2 -6 25 c-6 22
-12 25 -56 25 -39 0 -52 -4 -60 -19z"/>
<path d="M9705 5461 c-8 -26 -59 -31 -311 -31 -206 0 -214 -1 -224 -21 -9 -16
-8 -25 6 -40 16 -18 33 -19 270 -19 l254 0 6 -25 c6 -23 11 -25 59 -25 60 0
65 7 65 93 0 73 -11 87 -70 87 -39 0 -50 -4 -55 -19z"/>
<path d="M619 5203 c-21 -5 -29 -33 -29 -99 0 -66 20 -87 81 -82 37 2 45 7 47
26 l3 22 253 0 c265 0 276 2 276 45 0 43 -11 45 -275 45 l-252 0 -11 25 c-9
20 -18 25 -44 24 -18 -1 -40 -3 -49 -6z"/>
<path d="M9718 5199 c-10 -5 -18 -16 -18 -24 0 -12 -42 -15 -262 -17 l-263 -3
-10 -28 c-18 -54 -1 -57 280 -57 250 0 250 0 260 -22 8 -19 19 -24 58 -26 43
-3 48 -1 57 23 16 42 12 131 -6 149 -17 18 -70 21 -96 5z"/>
<path d="M5318 5052 l-298 -127 0 -184 c0 -142 3 -182 13 -178 93 36 565 243
575 251 9 9 12 56 10 188 l-3 176 -297 -126z"/>
<path d="M611 4921 c-8 -5 -15 -36 -19 -81 -6 -86 5 -100 75 -100 37 0 43 3
49 25 l6 25 248 0 c213 0 251 2 264 16 18 17 20 32 7 53 -7 11 -53 13 -239 12
-126 -1 -240 1 -254 4 -13 3 -28 16 -33 28 -8 17 -20 23 -50 25 -22 1 -46 -2
-54 -7z"/>
<path d="M9706 4907 c-5 -23 -10 -24 -127 -30 -67 -4 -184 -7 -260 -7 -130 0
-139 -1 -149 -21 -9 -16 -8 -25 6 -40 16 -18 33 -19 269 -19 l252 0 11 -25
c10 -21 18 -25 56 -25 56 0 66 15 66 99 0 73 -14 91 -75 91 -37 0 -44 -3 -49
-23z"/>
<path d="M5345 4560 c-137 -60 -267 -116 -287 -125 l-38 -16 0 -210 0 -210 21
6 c21 7 481 200 547 230 l32 15 0 210 c0 162 -3 210 -12 209 -7 0 -125 -50
-263 -109z"/>
<path d="M630 4643 c-14 -3 -28 -10 -32 -17 -12 -18 -9 -131 4 -144 7 -7 34
-12 61 -12 40 0 50 3 54 20 5 19 14 20 257 20 183 0 255 3 264 12 18 18 14 56
-7 68 -12 6 -115 10 -265 10 -209 0 -246 2 -246 15 0 16 -31 36 -52 34 -7 -1
-24 -4 -38 -6z"/>
<path d="M9733 4643 c-12 -2 -25 -13 -28 -24 -6 -18 -18 -19 -253 -19 -208 0
-251 -2 -270 -16 -27 -19 -29 -50 -3 -64 12 -6 116 -10 270 -10 241 0 250 -1
256 -20 5 -16 15 -20 55 -20 60 0 70 14 70 94 0 77 -20 94 -97 79z"/>
<path d="M610 4361 c-19 -13 -27 -145 -10 -166 8 -10 30 -15 61 -15 44 0 49 3
55 25 l6 25 248 0 c213 0 251 2 264 16 19 18 21 45 4 62 -9 9 -81 12 -263 12
-250 0 -250 0 -260 23 -8 17 -20 23 -50 25 -22 1 -47 -2 -55 -7z"/>
<path d="M9706 4345 l-6 -25 -260 0 -260 0 -12 -25 c-9 -21 -8 -28 7 -45 17
-19 31 -20 271 -20 l254 0 6 -25 c6 -22 11 -25 55 -25 45 0 51 3 60 28 15 37
7 141 -12 153 -8 5 -33 9 -55 9 -36 0 -43 -3 -48 -25z"/>
<path d="M599 4069 c-12 -22 -8 -133 4 -146 4 -4 29 -7 55 -7 39 -1 49 3 57
21 10 23 12 23 264 25 229 3 255 5 265 21 8 12 8 22 0 35 -10 15 -36 17 -267
20 l-255 2 -6 25 c-6 22 -12 25 -56 25 -40 0 -51 -4 -61 -21z"/>
<path d="M9703 4073 c-4 -10 -11 -21 -17 -25 -6 -4 -122 -8 -259 -8 l-247 0
-12 -26 c-23 -50 -3 -54 280 -54 240 0 254 -1 259 -19 3 -12 17 -21 38 -24 69
-11 85 6 85 91 0 68 -12 82 -71 82 -38 0 -51 -4 -56 -17z"/>
<path d="M5501 3927 c-5 -13 -30 -42 -56 -65 -42 -37 -44 -41 -25 -47 11 -3
37 -26 57 -50 l36 -44 39 44 c21 24 48 47 59 50 17 6 14 12 -31 52 -27 25 -50
51 -50 58 0 25 -20 26 -29 2z"/>
<path d="M2986 3784 c-33 -24 -64 -44 -68 -44 -4 0 -8 -4 -8 -9 0 -4 35 -11
77 -15 66 -5 80 -3 97 12 12 10 41 31 66 47 l45 29 -45 8 c-109 18 -102 19
-164 -28z"/>
<path d="M585 3628 c-10 -25 -12 -67 -8 -178 7 -179 8 -180 107 -180 39 0 76
4 83 8 6 4 14 24 18 45 l7 37 68 0 68 0 7 -32 c12 -53 20 -58 106 -58 109 0
109 1 109 201 0 190 1 189 -111 189 -45 0 -80 -5 -87 -12 -7 -7 -12 -34 -12
-60 l0 -48 -74 0 -73 0 -5 45 c-8 68 -18 75 -110 75 l-79 0 -14 -32z m311
-108 c37 0 44 -3 44 -20 0 -18 -7 -20 -74 -20 -58 0 -75 3 -80 16 -10 25 4 36
36 30 17 -3 50 -6 74 -6z"/>
<path d="M9296 3638 c-13 -18 -16 -53 -16 -175 0 -192 2 -195 117 -191 81 3
86 7 98 61 5 26 7 27 73 27 l68 0 10 -42 9 -43 80 -3 c122 -4 119 -8 123 186
4 201 4 202 -118 202 -90 0 -100 -8 -100 -79 l0 -41 -75 0 -75 0 0 48 c0 26
-5 53 -12 60 -7 7 -43 12 -89 12 -69 0 -80 -3 -93 -22z m344 -138 c0 -18 -7
-20 -75 -20 -68 0 -75 2 -75 20 0 18 7 20 75 20 68 0 75 -2 75 -20z"/>
<path d="M8902 3578 c-7 -7 -12 -24 -12 -38 0 -14 5 -31 12 -38 7 -7 24 -12
38 -12 14 0 31 5 38 12 7 7 12 24 12 38 0 14 -5 31 -12 38 -7 7 -24 12 -38 12
-14 0 -31 -5 -38 -12z"/>
<path d="M2732 3278 c-7 -7 -12 -24 -12 -38 0 -14 5 -31 12 -38 7 -7 24 -12
38 -12 14 0 31 5 38 12 7 7 12 24 12 38 0 14 -5 31 -12 38 -7 7 -24 12 -38 12
-14 0 -31 -5 -38 -12z"/>
<path d="M2308 3214 c23 -14 42 -30 42 -36 0 -5 5 -6 10 -3 6 4 9 1 8 -7 -2
-7 3 -12 10 -10 6 1 11 -2 10 -6 -2 -4 14 -23 35 -41 21 -19 35 -36 33 -39 -3
-2 -25 13 -50 35 -90 80 -208 120 -289 99 -34 -8 -84 -51 -104 -89 -22 -44
-19 -131 7 -192 l22 -50 -54 -49 c-59 -55 -13 -18 114 90 46 39 92 76 103 81
28 15 55 2 98 -46 58 -64 50 -108 -31 -162 -26 -18 -59 -43 -74 -57 l-27 -25
32 -25 c189 -143 397 -59 401 163 1 95 -23 170 -81 242 -56 71 -114 116 -177
137 -70 24 -87 19 -38 -10z"/>
<path d="M8088 3229 c-10 -5 -18 -7 -18 -3 0 3 -15 -5 -34 -20 -19 -14 -41
-26 -48 -26 -26 0 -109 -94 -140 -158 -40 -81 -50 -197 -23 -268 47 -124 151
-170 285 -127 47 15 142 85 130 95 -3 3 -36 26 -73 53 -38 26 -75 58 -84 71
-20 32 -10 74 30 114 40 41 72 53 100 39 31 -17 157 -118 157 -128 0 -4 15
-18 33 -31 l32 -23 -33 35 c-22 23 -29 37 -22 44 6 6 18 36 26 67 56 195 -107
310 -302 212 -38 -19 -91 -55 -117 -81 -26 -26 -47 -43 -47 -37 0 6 20 32 46
57 26 27 42 51 38 58 -4 7 -3 8 4 4 6 -4 35 9 64 29 36 24 46 35 33 35 -11 0
-28 -5 -37 -11z"/>
<path d="M5433 3179 c-34 -22 -63 -81 -63 -130 0 -16 7 -59 16 -94 14 -53 14
-70 4 -95 -21 -50 -32 -54 -109 -34 -61 16 -77 17 -123 5 -29 -7 -96 -16 -148
-20 -112 -9 -141 -20 -251 -97 -46 -32 -85 -58 -87 -59 -1 -1 9 -42 23 -91 24
-83 95 -237 135 -294 29 -41 61 -110 77 -164 20 -68 28 -76 78 -76 38 0 46 4
80 45 26 33 35 52 31 68 -9 39 -32 59 -72 66 -37 6 -40 9 -57 60 -18 53 -51
260 -44 268 3 2 26 -1 52 -7 43 -10 75 -8 126 6 13 4 19 -8 28 -58 7 -35 28
-116 46 -181 50 -173 52 -196 22 -259 -13 -29 -51 -82 -84 -118 -90 -98 -107
-136 -108 -245 -1 -87 -2 -92 -38 -144 -27 -38 -34 -57 -26 -62 9 -5 -2 -32
-36 -91 -69 -119 -75 -124 -148 -132 -108 -12 -164 -34 -228 -93 -61 -57 -186
-134 -281 -173 -54 -22 -59 -22 -76 -7 -21 19 -84 47 -107 47 -22 0 -30 -27
-60 -201 -28 -162 -29 -250 -2 -277 21 -20 31 -11 72 66 42 80 82 128 119 141
20 8 26 17 26 40 0 25 6 31 48 49 87 37 546 181 616 193 66 11 73 15 218 131
83 66 177 144 210 174 32 31 62 54 66 52 4 -2 59 -29 122 -60 l114 -55 -33
-17 c-48 -25 -120 -94 -140 -136 -10 -19 -28 -66 -41 -105 -26 -81 -93 -215
-128 -256 -15 -19 -33 -29 -51 -29 -33 0 -53 -20 -75 -74 -20 -49 -16 -55 97
-124 169 -103 245 -132 272 -106 17 18 19 15 -44 83 -23 25 -46 61 -51 82 -6
20 -17 42 -25 49 -43 36 1 96 280 380 117 118 219 230 229 247 l16 33 -120
139 c-66 77 -120 142 -120 145 0 3 6 6 14 6 13 0 70 -57 150 -150 21 -25 35
-38 31 -30 -20 36 -87 129 -123 170 l-40 45 -70 -38 c-84 -44 -99 -47 -53 -8
20 16 32 34 29 42 -3 8 -36 32 -74 54 -52 31 -63 41 -47 43 12 2 44 -8 72 -23
28 -14 51 -23 51 -21 0 3 -26 23 -57 45 -61 41 -144 121 -127 121 5 0 15 -5
22 -12 6 -6 13 -10 15 -7 2 2 23 65 45 139 48 156 67 263 57 329 -5 38 -4 44
7 33 9 -9 14 -48 16 -118 4 -118 7 -122 96 -149 41 -13 46 -12 75 9 47 35 68
66 123 183 27 59 65 129 84 154 38 52 41 71 18 128 -13 33 -23 42 -57 54 -41
13 -42 13 -70 -16 -25 -27 -28 -37 -26 -91 3 -69 -4 -86 -58 -138 l-38 -37
-22 97 c-12 53 -25 119 -28 147 -6 41 -14 57 -48 90 -23 22 -50 45 -59 50 -15
9 -15 13 -1 48 15 36 16 37 68 37 l53 0 11 52 c6 28 19 57 28 64 14 10 15 16
6 35 -20 43 -34 137 -28 182 8 53 1 60 -81 81 -87 23 -171 21 -211 -5z m57
-212 c0 -45 -28 -95 -69 -124 -31 -21 -25 -4 14 46 26 33 35 53 35 82 0 22 5
39 10 39 6 0 10 -19 10 -43z m-205 -171 c39 -17 50 -43 13 -29 -48 17 -131 9
-188 -19 -30 -15 -56 -25 -58 -23 -2 2 2 13 8 25 27 51 152 76 225 46z m-228
-22 c3 -8 -16 -15 -49 -19 -65 -8 -144 -43 -210 -91 -38 -29 -48 -42 -45 -58
3 -12 8 -37 11 -56 6 -32 4 -31 -23 20 -17 30 -30 60 -31 66 0 17 150 117 205
136 54 19 136 20 142 2z m433 -119 c50 -42 60 -43 60 -10 0 35 20 31 67 -12
42 -39 64 -91 62 -148 0 -25 -3 -21 -16 22 -14 47 -75 125 -88 112 -2 -3 0
-21 5 -40 6 -18 10 -52 10 -74 l-1 -40 -20 41 c-11 23 -45 70 -75 105 -48 55
-63 79 -50 79 2 0 23 -16 46 -35z m-338 -789 c-42 -46 -72 -121 -72 -182 0
-46 25 -110 66 -166 19 -28 33 -52 31 -54 -2 -3 -29 22 -59 54 -78 84 -96 164
-62 266 20 58 82 126 114 126 21 0 19 -3 -18 -44z"/>
<path d="M3234 3171 c-35 -16 -47 -30 -78 -94 -39 -79 -57 -92 -106 -80 -35 9
-80 42 -80 59 0 29 -20 13 -31 -26 -22 -71 21 -164 92 -201 116 -59 269 31
269 158 0 61 18 110 41 116 18 5 20 2 14 -16 -29 -88 -17 -154 39 -213 44 -46
44 -46 32 -88 l-12 -41 -72 -2 c-61 -2 -88 -9 -189 -53 -149 -65 -281 -130
-298 -147 -23 -23 18 -145 100 -299 30 -56 59 -124 66 -150 19 -76 25 -84 69
-84 33 0 43 6 70 40 29 37 31 43 20 70 -8 19 -25 34 -51 44 -51 21 -68 63
-115 284 -4 21 -1 22 48 22 29 1 71 8 93 16 75 29 73 29 83 -13 5 -21 20 -78
32 -128 58 -230 55 -250 -60 -363 -97 -98 -117 -146 -95 -239 7 -32 10 -62 5
-68 -5 -6 -14 -48 -20 -93 -15 -115 -22 -127 -78 -156 -64 -32 -96 -72 -143
-174 -30 -65 -74 -140 -105 -180 -1 -2 -15 -5 -31 -6 -32 -2 -113 -51 -113
-67 0 -7 29 -62 65 -123 90 -155 151 -209 188 -168 16 18 16 22 -3 64 -13 29
-21 71 -22 115 -3 113 26 151 341 448 51 49 161 201 161 224 0 16 26 14 63 -6
18 -9 92 -37 165 -63 129 -45 132 -47 106 -60 -14 -8 -68 -62 -119 -120 -128
-145 -159 -173 -181 -166 -11 3 -44 -7 -74 -22 -51 -25 -55 -30 -54 -60 2 -43
99 -217 148 -264 41 -41 66 -47 90 -23 13 14 13 20 0 58 -20 54 -23 149 -5
170 7 9 10 24 7 35 -8 24 11 41 164 142 357 236 375 266 242 390 -102 96 -111
102 -122 95 -6 -4 -9 -1 -8 6 2 7 -6 14 -18 15 -11 0 -32 9 -47 19 -41 26 -32
30 10 4 20 -13 33 -18 29 -11 -9 15 -108 75 -206 124 -72 37 -73 39 -35 35
l40 -4 -3 71 c-2 39 3 102 11 141 17 81 55 185 67 185 4 0 20 -24 34 -54 15
-30 33 -57 42 -60 28 -11 70 22 219 169 l147 147 -12 42 c-9 34 -19 46 -48 59
-35 16 -38 16 -56 -2 -11 -12 -21 -39 -23 -68 -6 -60 -11 -66 -102 -137 -87
-67 -100 -62 -80 27 13 61 2 94 -56 158 -18 20 -45 58 -60 83 -15 26 -29 45
-31 43 -5 -5 31 -78 66 -134 33 -52 37 -75 16 -92 -35 -29 -144 121 -162 223
-6 36 -6 38 14 27 30 -16 32 -14 33 22 1 61 11 72 61 68 l45 -2 12 55 c7 30
18 60 26 66 12 10 11 16 -5 38 -15 20 -21 48 -24 102 -4 70 -6 77 -37 103 -59
49 -144 60 -214 28 -40 -17 -41 -17 -84 6 -53 28 -64 28 -117 4z m179 -469
c18 -20 47 -84 47 -104 0 -7 -8 -1 -17 12 -53 77 -102 87 -206 44 -34 -14 -93
-37 -132 -51 -38 -14 -99 -39 -134 -56 l-64 -31 6 -65 5 -66 -15 35 c-9 19
-18 53 -20 76 l-5 40 68 36 c38 20 105 50 149 67 44 18 100 43 125 56 58 31
168 35 193 7z m-173 -754 c-36 -39 -63 -101 -64 -148 -1 -69 29 -117 110 -174
38 -26 58 -45 44 -41 -45 13 -83 37 -130 81 -61 57 -79 112 -59 181 14 53 72
123 101 123 18 0 18 -1 -2 -22z"/>
<path d="M6035 3096 c-20 -31 -6 -63 31 -72 46 -12 85 51 52 84 -21 21 -66 14
-83 -12z"/>
<path d="M6752 3080 c-63 -15 -95 -61 -106 -151 -4 -34 -14 -63 -24 -72 -28
-26 -68 -30 -103 -13 -18 9 -34 14 -36 12 -8 -8 70 -87 101 -103 74 -39 171
-33 224 12 25 21 27 31 32 111 4 67 9 89 22 98 25 15 32 2 18 -39 -20 -61 -5
-114 48 -163 45 -42 45 -42 33 -82 -6 -22 -17 -40 -24 -41 -7 -1 -41 -2 -77
-3 -58 -1 -79 -8 -205 -69 -77 -38 -162 -83 -189 -100 l-48 -31 5 -48 c4 -26
29 -115 57 -198 27 -82 50 -164 50 -182 0 -81 75 -107 131 -46 41 46 38 71
-13 109 -24 17 -46 36 -49 42 -4 7 -10 55 -13 107 -4 52 -10 104 -12 116 -5
18 0 22 34 28 22 3 62 15 88 26 26 12 50 17 54 13 4 -4 22 -55 40 -113 55
-177 52 -270 -12 -327 -171 -152 -198 -190 -198 -273 0 -46 -5 -56 -48 -109
-26 -31 -77 -103 -112 -158 -59 -92 -68 -102 -111 -117 -89 -32 -144 -77 -252
-207 -58 -69 -113 -131 -122 -139 -13 -11 -25 -11 -71 0 -73 18 -79 11 -115
-136 -34 -140 -36 -183 -11 -215 l19 -22 41 55 c48 65 91 103 150 132 37 18
43 24 39 46 -3 14 -1 32 3 41 22 39 348 269 450 316 36 16 106 63 155 105 88
73 195 182 195 198 0 4 -19 19 -43 33 -23 14 -63 47 -89 74 -59 64 -70 113
-38 178 23 48 46 63 30 19 -16 -41 -12 -94 11 -141 41 -85 144 -149 387 -239
81 -30 151 -59 156 -64 5 -5 -1 -21 -13 -39 -43 -59 -60 -116 -71 -231 -19
-192 -45 -290 -75 -290 -19 0 -44 -49 -47 -92 -3 -33 -2 -33 111 -90 137 -69
214 -90 238 -65 15 15 12 21 -39 76 -31 32 -59 72 -62 88 -4 15 -19 40 -33 55
-22 23 -24 32 -18 65 7 39 121 330 181 462 39 85 41 105 14 146 -34 52 -163
176 -177 171 -7 -3 -12 0 -10 6 1 7 -45 40 -103 75 -145 87 -140 83 -102 76
31 -5 32 -4 32 26 0 18 14 84 30 148 17 63 30 123 30 132 0 28 21 91 30 91 4
0 11 -18 15 -40 7 -44 48 -100 72 -100 26 0 80 50 145 133 35 44 87 107 116
139 28 32 52 62 52 66 0 27 -25 75 -44 83 -11 5 -29 15 -39 21 -16 11 -21 10
-37 -10 -15 -18 -19 -38 -18 -79 l2 -56 -69 -64 c-38 -35 -73 -63 -78 -63 -5
0 -6 18 -3 43 21 134 22 125 -39 207 -66 88 -75 98 -75 83 0 -6 16 -34 35 -62
62 -90 37 -151 -32 -78 -35 36 -66 93 -81 150 l-11 38 28 -6 c27 -6 28 -4 37
47 9 52 9 53 49 58 55 8 62 14 70 60 4 22 14 44 23 49 15 8 14 12 -2 48 -10
22 -18 62 -18 89 0 43 -4 53 -38 85 -53 51 -143 65 -217 34 -34 -14 -38 -14
-57 4 -23 22 -88 52 -108 50 -7 -1 -28 -5 -46 -9z m171 -468 c15 -17 47 -83
47 -98 0 -4 -15 10 -34 32 -31 36 -37 39 -85 38 -44 0 -76 -12 -205 -77 -85
-42 -156 -83 -159 -90 -3 -8 -1 -45 3 -83 5 -38 9 -78 9 -89 -1 -36 -39 88
-46 146 l-5 55 181 92 c154 79 188 92 229 92 34 0 54 -5 65 -18z m247 -982 c8
-5 11 -10 5 -10 -5 0 -17 5 -25 10 -8 5 -10 10 -5 10 6 0 17 -5 25 -10z"/>
<path d="M1195 3051 c-103 -25 -159 -61 -191 -123 -19 -37 -19 -37 29 -21 30
11 71 14 142 11 85 -4 112 -9 177 -37 105 -44 206 -117 314 -225 102 -103 174
-204 244 -344 64 -128 90 -211 96 -302 8 -104 8 -104 43 -86 36 19 79 69 102
121 50 110 4 321 -111 502 -16 26 -30 52 -30 58 0 14 269 229 277 221 14 -13
33 19 33 55 0 48 -15 59 -25 16 -6 -31 -7 -31 -17 -10 -22 45 -42 38 -190 -64
-198 -137 -219 -149 -230 -128 -5 8 -13 13 -17 11 -4 -3 -38 27 -76 65 -100
101 -75 89 37 -16 52 -50 59 -52 79 -29 11 13 5 23 -43 71 -51 50 -57 54 -79
44 -21 -11 -22 -10 -7 2 16 13 14 16 -20 49 -54 52 -197 133 -276 157 -81 25
-164 26 -261 2z m142 -7 c-3 -3 -12 -4 -19 -1 -8 3 -5 6 6 6 11 1 17 -2 13 -5z
m33 -4 c0 -5 -5 -10 -11 -10 -5 0 -7 5 -4 10 3 6 8 10 11 10 2 0 4 -4 4 -10z
m104 -46 c25 -14 49 -30 52 -36 4 -5 -4 -3 -17 5 -13 8 -42 25 -64 36 -22 12
-35 21 -29 21 6 0 32 -12 58 -26z m190 -119 c16 -14 27 -27 25 -29 -2 -2 -20
9 -39 25 -19 16 -30 29 -25 29 6 0 23 -11 39 -25z"/>
<path d="M8965 3045 c-38 -14 -71 -29 -73 -35 -2 -5 -13 -10 -23 -10 -13 0
-18 -4 -13 -12 4 -7 3 -8 -4 -4 -7 4 -17 2 -24 -4 -7 -6 -29 -19 -48 -30 -19
-10 -34 -23 -32 -30 1 -6 -2 -9 -8 -5 -20 13 -185 -128 -173 -148 3 -6 2 -7
-4 -4 -6 4 -21 -6 -34 -20 l-24 -27 30 19 c21 13 26 14 18 3 -7 -8 -10 -18 -7
-21 4 -4 -9 -5 -28 -4 -26 2 -71 28 -164 94 -177 124 -173 122 -200 88 -23
-29 -33 -25 -29 13 2 28 -21 29 -30 1 -11 -35 3 -64 42 -86 21 -12 74 -52 119
-90 44 -37 97 -81 117 -98 l37 -30 -40 -65 c-84 -137 -138 -313 -127 -417 10
-94 90 -203 149 -203 15 0 18 9 18 63 0 149 84 342 241 552 134 180 317 318
488 369 68 20 195 21 250 1 47 -16 49 -13 21 32 -41 68 -166 131 -232 118 -66
-12 -164 -39 -187 -52 -14 -6 -28 -10 -33 -7 -4 3 -8 1 -8 -5 0 -6 -7 -8 -16
-4 -16 6 -16 7 -1 18 9 7 14 15 10 18 -3 4 1 7 11 7 9 0 14 -4 11 -10 -6 -10
28 0 66 20 10 6 45 15 77 19 l57 9 -65 1 c-46 0 -86 -7 -135 -24z m-47 -64 c9
-5 4 -8 -16 -7 -17 1 -28 4 -25 9 6 9 25 9 41 -2z m-58 -40 c0 -15 -28 -20
-44 -8 -14 10 -12 12 14 14 16 1 30 -2 30 -6z m-45 -29 c-3 -3 -11 0 -18 7 -9
10 -8 11 6 5 10 -3 15 -9 12 -12z m-180 -101 c3 -5 2 -12 -3 -15 -5 -3 -9 1
-9 9 0 17 3 19 12 6z"/>
<path d="M4305 3000 c-3 -10 -26 -37 -51 -59 l-45 -40 28 -15 c15 -8 39 -31
53 -50 14 -20 28 -36 32 -36 3 0 16 16 28 35 12 20 36 43 52 51 l30 16 -36 30
c-20 16 -43 43 -51 59 -18 34 -31 37 -40 9z"/>
<path d="M995 2853 c-60 -27 -100 -60 -125 -106 -21 -37 -22 -40 -4 -32 32 15
130 17 189 5 72 -15 211 -85 296 -150 246 -186 442 -514 443 -743 l1 -79 34 6
c47 7 101 53 130 111 70 134 -9 358 -218 618 -118 146 -255 258 -407 334 -90
45 -97 46 -196 50 -82 2 -111 0 -143 -14z"/>
<path d="M9180 2851 c-238 -77 -497 -312 -656 -596 -85 -153 -110 -311 -63
-395 29 -52 83 -97 127 -106 l32 -6 0 59 c0 312 334 754 668 886 80 31 192 42
255 24 l28 -8 -15 29 c-20 38 -80 90 -130 113 -54 24 -171 24 -246 0z"/>
<path d="M8485 2780 c10 -11 20 -20 23 -20 3 0 -3 9 -13 20 -10 11 -20 20 -23
20 -3 0 3 -9 13 -20z"/>
<path d="M857 2670 c-43 -13 -96 -58 -128 -108 -38 -60 -39 -77 -1 -59 105 53
264 13 425 -106 199 -147 344 -352 397 -561 24 -93 25 -136 6 -199 l-14 -47
49 0 c45 0 54 4 99 46 66 62 84 111 77 212 -19 279 -383 701 -697 809 -67 23
-160 29 -213 13z"/>
<path d="M9370 2661 c-173 -56 -373 -211 -524 -406 -142 -182 -202 -327 -194
-464 3 -58 9 -78 34 -113 43 -62 87 -88 147 -88 43 0 48 2 42 17 -21 56 -26
117 -15 181 43 250 281 555 529 680 87 43 101 47 181 50 67 3 95 0 120 -13 32
-16 32 -16 24 7 -11 37 -54 95 -88 122 -63 48 -160 58 -256 27z"/>
<path d="M730 2458 c-64 -34 -82 -73 -77 -173 6 -125 84 -282 158 -317 41 -19
54 -33 63 -68 l7 -25 -20 23 c-12 13 -42 30 -67 38 -56 17 -64 17 -64 4 0 -5
10 -10 21 -10 26 0 103 -75 94 -90 -5 -8 -14 -5 -29 8 -32 29 -81 52 -113 52
-26 0 -25 -2 14 -20 25 -11 51 -33 63 -52 27 -44 25 -52 -4 -23 -40 39 -103
67 -126 55 -11 -6 -20 -13 -20 -16 0 -3 4 -2 10 1 13 8 66 -21 84 -47 29 -41
18 -52 -19 -19 -38 33 -90 42 -113 19 -31 -31 2 -113 60 -148 61 -37 76 -31
253 104 55 42 105 76 112 76 15 0 43 -39 43 -59 0 -12 -3 -12 -12 -3 -18 18
-63 14 -82 -7 -17 -19 -15 -21 51 -76 178 -148 337 -199 438 -142 106 60 115
227 23 412 -117 233 -366 458 -563 510 -82 21 -133 19 -185 -7z m379 -347 c-3
-27 18 -67 67 -128 44 -54 45 -58 26 -66 -11 -5 -24 -23 -29 -41 l-10 -31 -15
35 c-38 88 -103 154 -211 214 l-48 27 31 29 c16 15 30 37 30 48 0 19 8 16 80
-25 54 -30 80 -51 79 -62z m-167 -71 c46 -31 78 -68 78 -92 0 -7 -11 1 -25 18
-28 36 -90 64 -138 64 -30 -1 -29 -2 18 -20 50 -20 95 -62 95 -90 -1 -13 -2
-13 -13 0 -15 20 -58 50 -71 50 -5 0 -2 -8 7 -18 10 -10 17 -29 17 -42 0 -23
0 -23 -14 -5 -8 11 -12 23 -9 28 10 16 -31 47 -69 53 -21 4 -38 10 -38 13 0
12 83 71 100 71 9 0 37 -14 62 -30z"/>
<path d="M9513 2465 c-206 -56 -455 -284 -568 -520 -71 -149 -84 -253 -42
-335 35 -69 64 -85 156 -85 71 0 85 4 162 42 81 40 215 139 238 175 9 15 6 20
-17 32 -25 13 -33 13 -55 1 -36 -19 -41 -5 -11 32 l25 32 116 -90 c140 -109
165 -123 207 -115 49 9 116 87 116 135 0 23 -27 41 -60 41 -29 0 -79 -30 -86
-52 -6 -20 -24 -15 -24 7 0 23 60 75 86 75 13 0 24 5 24 11 0 18 -63 4 -109
-25 -23 -15 -41 -22 -41 -18 0 14 43 50 80 66 l35 15 -41 1 c-32 0 -49 -7 -82
-36 -29 -24 -42 -31 -42 -20 0 25 74 96 101 97 l24 0 -23 9 c-36 15 -76 1
-122 -43 -37 -37 -42 -39 -35 -17 14 46 36 69 85 91 45 20 52 28 94 113 54
108 80 202 71 255 -19 116 -120 164 -262 126z m-43 -277 c0 -12 12 -32 26 -43
l27 -21 -39 -23 c-105 -62 -182 -146 -221 -241 -10 -24 -10 -24 -17 14 -5 26
-14 40 -27 43 -26 7 -24 13 15 59 62 73 87 116 75 130 -8 10 -1 19 28 37 120
76 133 80 133 45z m128 -150 c47 -36 52 -48 22 -48 -32 0 -82 -24 -117 -58
-32 -29 -33 -29 -33 -8 0 27 42 69 90 89 l35 15 -36 1 c-42 1 -128 -49 -136
-79 -3 -11 -10 -20 -15 -20 -13 0 1 40 24 70 23 29 86 70 109 70 8 0 34 -14
57 -32z"/>
<path d="M4412 2097 l-63 -41 53 -13 c78 -18 90 -16 154 22 32 19 61 35 66 35
4 0 8 4 8 8 0 8 -113 33 -141 31 -8 0 -42 -19 -77 -42z"/>
<path d="M7701 2087 c-12 -20 -37 -48 -54 -62 l-32 -25 22 -15 c29 -21 51 -43
70 -71 l15 -24 28 39 c16 21 42 45 58 52 l30 13 -42 41 c-23 22 -49 51 -57 64
l-15 24 -23 -36z"/>
<path d="M2628 2048 l-56 -58 28 -15 c16 -8 41 -31 56 -50 l27 -36 15 23 c17
24 39 46 75 73 17 12 19 17 8 22 -16 7 -37 27 -71 69 l-25 31 -57 -59z"/>
<path d="M6017 1899 c-15 -22 -38 -45 -52 -51 -31 -14 -31 -21 -1 -37 13 -7
37 -31 52 -52 16 -21 31 -38 34 -38 3 0 19 17 35 39 17 21 40 43 53 49 29 14
28 25 -3 39 -13 6 -36 29 -51 52 -15 22 -29 40 -33 40 -3 -1 -18 -19 -34 -41z"/>
<path d="M2498 1653 l-3 -58 -122 -3 c-109 -2 -123 -5 -123 -20 0 -15 9 -17
73 -14 39 2 96 1 125 -3 l52 -6 0 -110 0 -110 53 3 52 3 5 110 5 110 35 0 c25
0 36 5 38 18 3 17 -9 21 -55 18 -17 -2 -22 5 -27 36 -3 21 -5 47 -3 58 2 17
-5 20 -50 23 l-52 3 -3 -58z"/>
<path d="M7720 1673 c0 -71 -8 -83 -52 -83 -32 0 -39 -3 -36 -17 2 -10 12 -18
23 -19 58 -3 55 3 55 -98 0 -124 1 -126 61 -126 l49 0 0 115 0 115 125 0 c104
0 125 2 125 15 0 13 -21 15 -125 15 l-125 0 0 60 0 60 -50 0 -50 0 0 -37z"/>
<path d="M4345 1538 l-70 -42 74 -17 73 -17 76 39 c41 21 69 40 61 43 -8 2
-36 11 -63 20 -67 22 -71 21 -151 -26z"/>
<path d="M8440 1408 c-25 -28 -25 -48 1 -82 23 -30 18 -46 -16 -46 -43 0 -112
-116 -100 -169 12 -56 30 -62 161 -59 l119 3 19 36 c23 43 18 69 -26 135 -24
35 -41 50 -62 54 -37 6 -42 21 -16 45 27 24 26 70 -2 89 -31 22 -54 20 -78 -6z
m-35 -275 c-9 -49 -29 -31 -21 20 4 22 10 45 14 51 10 16 15 -30 7 -71z m171
22 c7 -39 -3 -65 -17 -44 -12 19 -11 92 1 84 5 -3 12 -21 16 -40z"/>
<path d="M1926 1404 c-27 -26 -24 -71 5 -96 24 -20 17 -38 -14 -38 -33 0 -43
-10 -76 -74 -37 -69 -38 -85 -10 -120 20 -25 23 -26 140 -26 l119 0 17 34 c15
33 15 37 -6 89 -26 64 -54 97 -82 97 -25 0 -36 27 -16 43 26 21 29 52 6 80
-23 30 -59 35 -83 11z m-35 -291 c-8 -14 -10 -8 -11 28 0 25 3 49 8 53 11 12
14 -62 3 -81z m166 24 c4 -24 2 -37 -6 -37 -6 0 -11 13 -11 29 0 16 -3 38 -6
48 -5 13 -4 15 5 7 6 -6 14 -27 18 -47z"/>
<path d="M7897 1212 c-23 -25 -21 -65 3 -87 25 -22 19 -31 -25 -39 -32 -6 -39
-14 -67 -70 -25 -51 -29 -70 -24 -100 11 -55 34 -65 161 -67 107 -1 110 -1
132 25 30 35 29 58 -7 134 -28 59 -38 69 -93 86 -18 6 -17 7 2 32 26 33 27 58
1 84 -25 25 -62 26 -83 2z m146 -262 c6 -24 -7 -60 -17 -49 -3 3 -8 32 -11 65
-6 54 -5 57 8 34 8 -14 17 -36 20 -50z m-181 10 c-2 -27 -8 -50 -13 -50 -10 0
-12 60 -3 84 12 31 19 15 16 -34z"/>
<path d="M6586 964 c-36 -36 -8 -87 44 -82 27 2 37 9 44 30 18 51 -49 91 -88
52z"/>
<path d="M2260 911 c-24 -45 -2 -81 49 -81 31 0 57 45 43 75 -15 32 -76 36
-92 6z"/>
</g>
</svg>
